<svg width="21" height="21" viewBox="0 0 21 21" fill="none" xmlns="http://www.w3.org/2000/svg">
<path fill-rule="evenodd" clip-rule="evenodd" d="M18.375 6.5625H2.625V18.375C2.625 18.7231 2.76328 19.0569 3.00942 19.3031C3.25556 19.5492 3.5894 19.6875 3.9375 19.6875H17.0625C17.4106 19.6875 17.7444 19.5492 17.9906 19.3031C18.2367 19.0569 18.375 18.7231 18.375 18.375V6.5625ZM1.3125 5.25V18.375C1.3125 19.0712 1.58906 19.7389 2.08134 20.2312C2.57363 20.7234 3.24131 21 3.9375 21H17.0625C17.7587 21 18.4264 20.7234 18.9187 20.2312C19.4109 19.7389 19.6875 19.0712 19.6875 18.375V5.25H1.3125Z" fill="white"/>
<path d="M10.5 1.96875C9.62976 1.96875 8.79516 2.31445 8.17981 2.92981C7.56445 3.54516 7.21875 4.37976 7.21875 5.25H5.90625C5.90625 4.03166 6.39023 2.86322 7.25173 2.00173C8.11322 1.14023 9.28166 0.65625 10.5 0.65625C11.7183 0.65625 12.8868 1.14023 13.7483 2.00173C14.6098 2.86322 15.0937 4.03166 15.0938 5.25H13.7812C13.7812 4.37976 13.4355 3.54516 12.8202 2.92981C12.2048 2.31445 11.3702 1.96875 10.5 1.96875V1.96875Z" fill="white"/>
</svg>
